<?xml version="1.0" encoding="UTF-8" standalone="no"?>
<svg
   xmlns:dc="http://purl.org/dc/elements/1.1/"
   xmlns:cc="http://creativecommons.org/ns#"
   xmlns:rdf="http://www.w3.org/1999/02/22-rdf-syntax-ns#"
   xmlns:svg="http://www.w3.org/2000/svg"
   xmlns="http://www.w3.org/2000/svg"
   xmlns:sodipodi="http://sodipodi.sourceforge.net/DTD/sodipodi-0.dtd"
   xmlns:inkscape="http://www.inkscape.org/namespaces/inkscape"
   height="48"
   width="48"
   version="1.1"
   viewBox="0 0 48 48"
   id="svg2"
   inkscape:version="0.91 r13725"
   sodipodi:docname="spotify_dark.svg">
  <metadata
     id="metadata10">
    <rdf:RDF>
      <cc:Work
         rdf:about="">
        <dc:format>image/svg+xml</dc:format>
        <dc:type
           rdf:resource="http://purl.org/dc/dcmitype/StillImage" />
        <dc:title></dc:title>
      </cc:Work>
    </rdf:RDF>
  </metadata>
  <defs
     id="defs8" />
  <sodipodi:namedview
     pagecolor="#ffffff"
     bordercolor="#666666"
     borderopacity="1"
     objecttolerance="10"
     gridtolerance="10"
     guidetolerance="10"
     inkscape:pageopacity="0"
     inkscape:pageshadow="2"
     inkscape:window-width="1920"
     inkscape:window-height="1080"
     id="namedview6"
     showgrid="false"
     inkscape:zoom="1.3299857"
     inkscape:cx="-84.419379"
     inkscape:cy="53.600334"
     inkscape:window-x="0"
     inkscape:window-y="0"
     inkscape:window-maximized="1"
     inkscape:current-layer="svg2" />
  <path
     d="M 23.999857,0 C 10.745383,0 0,10.745353 0,24.000143 0,37.255506 10.745383,48 23.999857,48 37.255763,48 48,37.255506 48,24.000143 48,10.746213 37.255763,0.00114639 23.99957,0.00114639 L 23.999857,0 Z m 11.006179,34.615095 c -0.429884,0.705027 -1.352702,0.928573 -2.057712,0.495812 -5.634921,-3.442021 -12.728582,-4.221563 -21.082663,-2.312832 -0.805029,0.183421 -1.60748,-0.320988 -1.790897,-1.126323 -0.184277,-0.805336 0.318114,-1.607805 1.12515,-1.791227 9.142202,-2.089573 16.984148,-1.189374 23.310323,2.676809 0.70501,0.432761 0.928549,1.352734 0.495799,2.057761 z m 2.937542,-6.535827 c -0.541654,0.881283 -1.693744,1.159282 -2.573573,0.617615 -6.451128,-3.966206 -16.28487,-5.114597 -23.915313,-2.798326 -0.989593,0.298919 -2.0347848,-0.258797 -2.3351305,-1.246694 -0.298053,-0.989616 0.2599366,-2.032827 1.2478105,-2.333753 8.716043,-2.644711 19.551702,-1.363625 26.960038,3.188957 0.87983,0.541667 1.157822,1.693783 0.616168,2.572487 l 0,-2.86e-4 z m 0.252198,-6.804941 C 30.460728,16.679902 17.698902,16.257459 10.31378,18.498928 9.1278726,18.858607 7.8737574,18.189118 7.5143742,17.003183 7.1549911,15.816674 7.8238908,14.563388 9.0106575,14.202851 17.488259,11.629216 31.581293,12.12646 40.486772,17.413302 c 1.068979,0.633091 1.418618,2.010759 0.785255,3.076037 -0.630497,1.066711 -2.011858,1.418365 -3.075104,0.784988 z"
     id="path4"
     inkscape:connector-curvature="0"/>
</svg>
