<?xml version="1.0" encoding="UTF-8" standalone="no"?>
<!-- Generator: Adobe Illustrator 19.1.0, SVG Export Plug-In . SVG Version: 6.00 Build 0)  -->

<svg
   xmlns:dc="http://purl.org/dc/elements/1.1/"
   xmlns:cc="http://creativecommons.org/ns#"
   xmlns:rdf="http://www.w3.org/1999/02/22-rdf-syntax-ns#"
   xmlns:svg="http://www.w3.org/2000/svg"
   xmlns="http://www.w3.org/2000/svg"
   xmlns:sodipodi="http://sodipodi.sourceforge.net/DTD/sodipodi-0.dtd"
   xmlns:inkscape="http://www.inkscape.org/namespaces/inkscape"
   version="1.1"
   x="0px"
   y="0px"
   width="48"
   height="48"
   viewBox="0 0 48 48"
   enable-background="new 0 0 24 24"
   xml:space="preserve"
   id="svg2"
   inkscape:version="0.91 r13725"
   sodipodi:docname="save_dark.svg"><metadata
     id="metadata16"><rdf:RDF><cc:Work
         rdf:about=""><dc:format>image/svg+xml</dc:format><dc:type
           rdf:resource="http://purl.org/dc/dcmitype/StillImage" /><dc:title></dc:title></cc:Work></rdf:RDF></metadata><defs
     id="defs14" /><sodipodi:namedview
     pagecolor="#ffffff"
     bordercolor="#666666"
     borderopacity="1"
     objecttolerance="10"
     gridtolerance="10"
     guidetolerance="10"
     inkscape:pageopacity="0"
     inkscape:pageshadow="2"
     inkscape:window-width="1920"
     inkscape:window-height="1080"
     id="namedview12"
     showgrid="false"
     showborder="true"
     borderlayer="false"
     inkscape:showpageshadow="true"
     inkscape:zoom="9.28125"
     inkscape:cx="26.50933"
     inkscape:cy="26.13064"
     inkscape:window-x="0"
     inkscape:window-y="0"
     inkscape:window-maximized="1"
     inkscape:current-layer="svg2" /><g
     id="Bounding_Boxes"
     transform="translate(0,24)"><g
       id="ui_x5F_spec_x5F_header_copy_3"
       display="none"
       style="display:none" /><path
       d="M 0,0 24,0 24,24 0,24 0,0 Z"
       id="path6"
       inkscape:connector-curvature="0"
       style="fill:none" /></g><g
     id="Rounded_1_"
     transform="matrix(2.6666667,0,0,2.6666667,-8.0000001,-8.0000007)"><g
       id="ui_x5F_spec_x5F_header_copy_6"
       display="none"
       style="display:none" /><path
       d="M 17.59,3.59 C 17.21,3.21 16.7,3 16.17,3 L 5,3 C 3.89,3 3,3.9 3,5 l 0,14 c 0,1.1 0.9,2 2,2 l 14,0 c 1.1,0 2,-0.9 2,-2 L 21,7.83 C 21,7.3 20.79,6.79 20.41,6.42 L 17.59,3.59 Z M 12,19 c -1.66,0 -3,-1.34 -3,-3 0,-1.66 1.34,-3 3,-3 1.66,0 3,1.34 3,3 0,1.66 -1.34,3 -3,3 z M 13,9 7,9 C 5.9,9 5,8.1 5,7 L 5,7 C 5,5.9 5.9,5 7,5 l 6,0 c 1.1,0 2,0.9 2,2 l 0,0 c 0,1.1 -0.9,2 -2,2 z"
       id="path10"
       inkscape:connector-curvature="0" /></g></svg>